<?xml version="1.0" encoding="UTF-8" standalone="no"?><!DOCTYPE svg PUBLIC "-//W3C//DTD SVG 1.1//EN" "http://www.w3.org/Graphics/SVG/1.1/DTD/svg11.dtd"><svg width="100%" height="100%" viewBox="0 0 101 95" version="1.1" xmlns="http://www.w3.org/2000/svg" xmlns:xlink="http://www.w3.org/1999/xlink" xml:space="preserve" xmlns:serif="http://www.serif.com/" style="fill-rule:evenodd;clip-rule:evenodd;stroke-linejoin:round;stroke-miterlimit:2;"><path d="M54.026,5.168l11.056,22.395c0.622,1.266 1.833,2.144 3.222,2.344l24.722,3.595c2.095,0.308 3.664,2.125 3.664,4.243c0,1.154 -0.466,2.261 -1.292,3.068l-17.889,17.433c-1.008,0.985 -1.47,2.405 -1.233,3.795l4.222,24.616c0.041,0.238 0.061,0.479 0.061,0.72c0,2.353 -1.936,4.289 -4.289,4.289c-0.695,-0 -1.379,-0.169 -1.994,-0.492l-22.111,-11.622c-1.248,-0.655 -2.741,-0.655 -3.989,-0l-22.111,11.622c-0.614,0.321 -1.296,0.488 -1.988,0.488c-2.353,0 -4.289,-1.936 -4.289,-4.288c-0,-0.241 0.02,-0.48 0.06,-0.717l4.222,-24.616c0.24,-1.39 -0.222,-2.812 -1.233,-3.795l-17.889,-17.433c-0.825,-0.807 -1.291,-1.913 -1.291,-3.068c0,-2.119 1.572,-3.937 3.669,-4.243l24.717,-3.595c1.392,-0.204 2.599,-1.082 3.222,-2.344l11.055,-22.395c0.725,-1.462 2.222,-2.39 3.853,-2.39c1.632,-0 3.128,0.928 3.853,2.39Z" style="fill:#fc7614;fill-rule:nonzero;"/></svg>