<?xml version="1.0" encoding="UTF-8" standalone="no"?><!DOCTYPE svg PUBLIC "-//W3C//DTD SVG 1.1//EN" "http://www.w3.org/Graphics/SVG/1.1/DTD/svg11.dtd"><svg width="100%" height="100%" viewBox="0 0 134 134" version="1.1" xmlns="http://www.w3.org/2000/svg" xmlns:xlink="http://www.w3.org/1999/xlink" xml:space="preserve" xmlns:serif="http://www.serif.com/" style="fill-rule:evenodd;clip-rule:evenodd;stroke-linejoin:round;stroke-miterlimit:2;"><g><circle cx="66.667" cy="66.667" r="66.667" style="fill:#df3232;"/><path d="M72.222,38.889c0,-3.066 -2.489,-5.556 -5.555,-5.556c-3.067,0 -5.556,2.49 -5.556,5.556l0,38.889c0,3.066 2.489,5.555 5.556,5.555c3.066,0 5.555,-2.489 5.555,-5.555l0,-38.889Z" style="fill:#fff;"/><path d="M72.222,100c0,-3.066 -2.489,-5.556 -5.555,-5.556c-3.067,0 -5.556,2.49 -5.556,5.556c0,3.066 2.489,5.556 5.556,5.556c3.066,-0 5.555,-2.49 5.555,-5.556Z" style="fill:#fff;"/></g></svg>